<?xml version="1.0" encoding="UTF-8"?>
<svg width="24px" height="24px" viewBox="0 0 24 24" version="1.1" xmlns="http://www.w3.org/2000/svg" xmlns:xlink="http://www.w3.org/1999/xlink">
    <!-- Generator: Sketch 46 (44423) - http://www.bohemiancoding.com/sketch -->
    <title>Shape</title>
    <desc>Created with Sketch.</desc>
    <defs></defs>
    <g id="Page-1" stroke="none" stroke-width="1" fill="none" fill-rule="evenodd">
        <g id="Shared_boards_1" transform="translate(-1066.000000, -48.000000)" fill="#8B97A0">
            <g id="DASHBOARD">
                <g id="HEADBAR" transform="translate(2.000000, 0.000000)">
                    <g id="ICONS" transform="translate(1064.000000, 41.000000)">
                        <path d="M20.88,20.2 C20.88,19.84 21,19.48 21,19 C21,18.52 21,18.16 20.88,17.8 L23.4,15.76 C23.64,15.52 23.64,15.28 23.52,15.04 L21.12,10.84 C21,10.72 20.76,10.6 20.4,10.72 L17.4,11.92 C16.8,11.44 16.08,11.08 15.36,10.72 L14.88,7.6 C15,7.24 14.64,7 14.4,7 L9.6,7 C9.36,7 9,7.24 9,7.48 L8.52,10.72 C7.8,10.96 7.2,11.44 6.48,11.92 L3.6,10.72 C3.24,10.6 3,10.72 2.76,10.96 L0.36,15.16 C0.24,15.28 0.36,15.64 0.6,15.88 L3.12,17.8 C3.12,18.16 3,18.52 3,19 C3,19.48 3,19.84 3.12,20.2 L0.6,22.24 C0.36,22.48 0.36,22.72 0.48,22.96 L2.88,27.16 C3,27.28 3.24,27.4 3.6,27.28 L6.6,26.08 C7.2,26.56 7.92,26.92 8.64,27.28 L9.12,30.4 C9.12,30.64 9.36,30.88 9.72,30.88 L14.52,30.88 C14.76,30.88 15.12,30.64 15.12,30.4 L15.6,27.28 C16.32,26.92 17.04,26.56 17.64,26.08 L20.64,27.28 C20.88,27.4 21.24,27.28 21.36,27.04 L23.76,22.84 C23.88,22.6 23.88,22.24 23.64,22.12 L20.88,20.2 L20.88,20.2 Z M12,23.2 C9.72,23.2 7.8,21.28 7.8,19 C7.8,16.72 9.72,14.8 12,14.8 C14.28,14.8 16.2,16.72 16.2,19 C16.2,21.28 14.28,23.2 12,23.2 L12,23.2 Z" id="Shape"></path>
                    </g>
                </g>
            </g>
        </g>
    </g>
</svg>